# xmcd CD database file
#
# Track frame offsets:
#	151
#	19806
#	36753
#	53520
#	69695
#	90590
#	111573
#	128934
#	152683
#	166450
#	178873
#	190474
#
# Disc length: 2730 seconds
#
# Revision: 0
# Processed by: cddbd v1.5.2PL0 Copyright (c) Steve Scherf et al.
# Submitted via: CDex 1.51
#
DISCID=a60aa80c
DTITLE=Mac Manton - Horse of a Different Kind
DYEAR=2005
DGENRE=Country
TTITLE0=When My Blue Moon Turns to Gold
TTITLE1=Shelly's Winter Love
TTITLE2=Old Retired Showman
TTITLE3=I'd Be Better Off In A Pine Box
TTITLE4=Kern River
TTITLE5=Farmer's Daughter
TTITLE6=Carmen
TTITLE7=A Place To Fall Apart
TTITLE8=Chill Factor
TTITLE9=Sing Me Back Home
TTITLE10=Mansion On The Hill
TTITLE11=Mumma Take Me Home
EXTD=YEAR: 2005
EXTT0=
EXTT1=
EXTT2=
EXTT3=
EXTT4=
EXTT5=
EXTT6=
EXTT7=
EXTT8=
EXTT9=
EXTT10=
EXTT11=
PLAYORDER=
